<svg width="74" height="74" viewBox="0 0 74 74" fill="none" xmlns="http://www.w3.org/2000/svg">
<g id="certificate-svgrepo-com 1" clip-path="url(#clip0_3_8)">
<path id="Vector" d="M59.9873 0H0V74H59.9873V0Z" fill="#F6F7F8"/>
<path id="Vector_2" d="M59.9873 0H0V4.40856H59.9873V0Z" fill="#637888"/>
<path id="Vector_3" d="M49.1234 13.0681H10.8638V14.6426H49.1234V13.0681Z" fill="#60C3AB"/>
<g id="Group">
<path id="Vector_4" d="M49.1234 22.8299H10.8638V24.4044H49.1234V22.8299Z" fill="#BDC2C6"/>
<path id="Vector_5" d="M49.1234 32.749H10.8638V34.3235H49.1234V32.749Z" fill="#BDC2C6"/>
<path id="Vector_6" d="M30.5446 42.5107H10.8638V44.0852H30.5446V42.5107Z" fill="#BDC2C6"/>
<path id="Vector_7" d="M30.5446 52.2723H10.8638V53.8469H30.5446V52.2723Z" fill="#BDC2C6"/>
<path id="Vector_8" d="M30.5446 62.0341H10.8638V63.6087H30.5446V62.0341Z" fill="#BDC2C6"/>
</g>
<path id="Vector_9" d="M74 65.0255L67.0724 64.7107L65.6554 71.6383L54.4767 57.7831L62.9788 51.1703L74 65.0255Z" fill="#E14A4A"/>
<path id="Vector_10" d="M38.2596 65.0255L45.0299 64.7107L46.6042 71.6383L57.6256 57.7831L49.2809 51.1703L38.2596 65.0255Z" fill="#F16D6E"/>
<path id="Vector_11" d="M56.0511 37.7873L58.7278 36.0554L60.4596 38.7319L63.6085 38.1021L63.9235 41.4085L67.0724 42.0383L66.1277 45.1872L68.8043 47.0766L66.6001 49.5958L68.1746 52.2723L65.3405 53.6893L65.4979 56.9957H62.349L61.2468 59.9873L58.2554 58.7277L56.0511 61.0895L53.8468 58.7277L50.8553 59.9873L49.9106 56.9957H46.6042L46.9192 53.6893L43.9277 52.2723L45.5022 49.5958L43.4554 47.0766L45.9746 45.1872L45.0299 42.0383L48.1788 41.4085L48.6511 38.1021L51.8 38.7319L53.3745 36.0554L56.0511 37.7873Z" fill="#53C2EF"/>
<path id="Vector_12" d="M56.051 56.0511C60.2249 56.0511 63.6085 52.6675 63.6085 48.4936C63.6085 44.3197 60.2249 40.9362 56.051 40.9362C51.8772 40.9362 48.4936 44.3197 48.4936 48.4936C48.4936 52.6675 51.8772 56.0511 56.051 56.0511Z" fill="#FEC656"/>
</g>
<defs>
<clipPath id="clip0_3_8">
<rect width="74" height="74" fill="white"/>
</clipPath>
</defs>
</svg>
